<?xml version="1.0" standalone="no"?>
<!DOCTYPE svg PUBLIC "-//W3C//DTD SVG 20010904//EN"
 "http://www.w3.org/TR/2001/REC-SVG-20010904/DTD/svg10.dtd">
<svg version="1.0" xmlns="http://www.w3.org/2000/svg"
 width="290.000000pt" height="77.000000pt" viewBox="0 0 290.000000 77.000000"
 preserveAspectRatio="xMidYMid meet">

<g transform="translate(0.000000,77.000000) scale(0.100000,-0.100000)"
fill="#000000" stroke="none">
<path d="M385 690 c-46 -10 -72 -27 -102 -67 -27 -35 -28 -40 -31 -185 l-3
-148 -55 0 c-61 0 -85 -9 -126 -48 -23 -21 -28 -34 -28 -73 0 -86 69 -136 172
-127 58 6 96 31 120 79 15 29 18 63 18 236 l0 202 26 20 c35 28 69 26 99 -4
17 -17 25 -35 25 -60 0 -51 15 -75 48 -75 39 0 52 17 52 67 0 81 69 119 127
69 27 -23 28 -28 31 -134 l4 -110 -41 5 c-49 7 -118 -17 -150 -51 -32 -34 -37
-93 -13 -132 54 -86 221 -86 277 0 14 21 16 54 13 229 -3 224 -5 232 -69 280
-53 39 -158 39 -202 -1 -17 -15 -21 -15 -60 5 -49 26 -90 33 -132 23z"/>
<path d="M2458 589 c-21 -12 -24 -49 -6 -67 13 -13 47 -16 72 -6 23 9 21 61
-3 74 -24 12 -41 12 -63 -1z"/>
<path d="M1012 568 c-13 -13 -18 -320 -6 -352 4 -10 18 -16 40 -16 40 0 43 8
46 120 l3 75 38 -68 c58 -103 77 -102 139 4 l38 64 0 -81 c0 -94 12 -117 55
-112 l30 3 0 185 0 185 -31 3 c-37 4 -45 -7 -114 -131 -26 -49 -46 -75 -52
-69 -5 5 -33 51 -62 103 -46 82 -57 94 -82 97 -16 2 -35 -3 -42 -10z"/>
<path d="M2300 561 c-5 -11 -10 -42 -10 -70 l0 -50 -27 15 c-91 47 -172 -28
-161 -148 9 -90 84 -137 159 -100 31 15 39 16 43 6 8 -22 64 -17 76 5 5 11 10
86 10 171 0 85 -5 160 -10 171 -7 12 -21 19 -40 19 -19 0 -33 -7 -40 -19z
m-26 -177 c24 -23 21 -89 -5 -107 -42 -30 -88 15 -74 73 13 50 48 66 79 34z"/>
<path d="M1531 452 c-52 -26 -76 -65 -75 -122 1 -84 56 -134 145 -133 91 1
139 50 139 141 0 104 -111 165 -209 114z m103 -74 c42 -59 -9 -140 -63 -102
-15 11 -21 26 -21 54 0 64 52 94 84 48z"/>
<path d="M1854 456 c-49 -22 -74 -61 -74 -118 0 -92 50 -142 141 -141 91 1
143 49 143 133 0 34 -6 59 -20 78 -42 56 -124 77 -190 48z m100 -72 c33 -32 7
-124 -34 -124 -20 0 -50 41 -50 68 0 58 49 91 84 56z"/>
<path d="M2456 448 c-12 -16 -16 -48 -16 -116 0 -109 9 -132 50 -132 42 0 50
23 50 138 0 83 -3 102 -18 115 -25 23 -48 21 -66 -5z"/>
<path d="M2654 451 c-93 -42 -98 -178 -9 -237 35 -23 123 -22 163 2 88 51 79
201 -13 240 -46 19 -92 17 -141 -5z m114 -84 c10 -21 11 -35 2 -61 -21 -65
-90 -47 -90 24 0 69 61 95 88 37z"/>
</g>
</svg>
